name D:\school\WTK\thesis\model\3dpredictsim\Results\MidTarsalJoint\Fal_s1_bCst_PF_Natali2010_ls150_MT_k150_MTP_T2_ig24.mot
datacolumns 128
datarows 4
range 0.57127020 0.60554641
endheader
time	pelvis_tilt	pelvis_list	pelvis_rotation	pelvis_tx	pelvis_ty	pelvis_tz	hip_flexion_l	hip_adduction_l	hip_rotation_l	hip_flexion_r	hip_adduction_r	hip_rotation_r	knee_angle_l	knee_angle_r	ankle_angle_l	ankle_angle_r	subtalar_angle_l	subtalar_angle_r	mtj_angle_l	mtj_angle_r	mtp_angle_l	mtp_angle_r	lumbar_extension	lumbar_bending	lumbar_rotation	arm_flex_l	arm_add_l	arm_rot_l	arm_flex_r	arm_add_r	arm_rot_r	elbow_flex_l	elbow_flex_r	pro_sup_l	pro_sup_r	glut_med1_l/activation	glut_med2_l/activation	glut_med3_l/activation	glut_min1_l/activation	glut_min2_l/activation	glut_min3_l/activation	semimem_l/activation	semiten_l/activation	bifemlh_l/activation	bifemsh_l/activation	sar_l/activation	add_long_l/activation	add_brev_l/activation	add_mag1_l/activation	add_mag2_l/activation	add_mag3_l/activation	tfl_l/activation	pect_l/activation	grac_l/activation	glut_max1_l/activation	glut_max2_l/activation	glut_max3_l/activation	iliacus_l/activation	psoas_l/activation	quad_fem_l/activation	gem_l/activation	peri_l/activation	rect_fem_l/activation	vas_med_l/activation	vas_int_l/activation	vas_lat_l/activation	med_gas_l/activation	lat_gas_l/activation	soleus_l/activation	tib_post_l/activation	flex_dig_l/activation	flex_hal_l/activation	tib_ant_l/activation	per_brev_l/activation	per_long_l/activation	per_tert_l/activation	ext_dig_l/activation	ext_hal_l/activation	ercspn_l/activation	intobl_l/activation	extobl_l/activation	glut_med1_r/activation	glut_med2_r/activation	glut_med3_r/activation	glut_min1_r/activation	glut_min2_r/activation	glut_min3_r/activation	semimem_r/activation	semiten_r/activation	bifemlh_r/activation	bifemsh_r/activation	sar_r/activation	add_long_r/activation	add_brev_r/activation	add_mag1_r/activation	add_mag2_r/activation	add_mag3_r/activation	tfl_r/activation	pect_r/activation	grac_r/activation	glut_max1_r/activation	glut_max2_r/activation	glut_max3_r/activation	iliacus_r/activation	psoas_r/activation	quad_fem_r/activation	gem_r/activation	peri_r/activation	rect_fem_r/activation	vas_med_r/activation	vas_int_r/activation	vas_lat_r/activation	med_gas_r/activation	lat_gas_r/activation	soleus_r/activation	tib_post_r/activation	flex_dig_r/activation	flex_hal_r/activation	tib_ant_r/activation	per_brev_r/activation	per_long_r/activation	per_tert_r/activation	ext_dig_r/activation	ext_hal_r/activation	ercspn_r/activation	intobl_r/activation	extobl_r/activation	
          0.57127020	         -2.93017640	          2.28601823	         -5.69980200	          0.71408775	          0.91763888	          0.00186547	         29.17552120	          3.58888858	         -2.33699029	        -16.38398017	         -1.25258905	          6.41522492	        -10.61505624	         -9.35481628	          4.80568920	         -3.28757035	         -6.63316554	          7.43127373	         -0.07601280	          7.96068190	         -0.89543954	          5.77619208	         -1.63643958	         -0.31437710	          2.26700744	         -6.44649508	        -13.46848055	          5.52135042	          5.01777671	        -13.45107675	         15.85404389	         17.35737429	         35.22670222	         86.51662706	         86.51662706	          0.08347906	          0.05952107	          0.05000007	          0.07034326	          0.05952138	          0.05000162	          0.21897478	          0.05640831	          0.07683373	          0.05000300	          0.05000024	          0.11953204	          0.24046812	          0.19348176	          0.15630112	          0.08789523	          0.05000039	          0.07088165	          0.11031617	          0.05000025	          0.05000014	          0.09475154	          0.07034483	          0.05469670	          0.48022265	          0.18935047	          0.12031277	          0.08431395	          0.16308033	          0.16165737	          0.13979631	          0.05000002	          0.05000005	          0.05000000	          0.05000003	          0.05000033	          0.05000015	          0.48439557	          0.25689751	          0.16930504	          0.18131520	          0.45936136	          0.05952144	          0.05000025	          0.12621259	          0.11030953	          0.25122239	          0.10040965	          0.07085546	          0.25763472	          0.17915440	          0.10237761	          0.05000149	          0.05000029	          0.05000024	          0.05000026	          0.10329708	          0.05000705	          0.06647484	          0.05000173	          0.05000230	          0.05000182	          0.29693285	          0.05397217	          0.05000107	          0.05000134	          0.05000086	          0.05000083	          0.37079006	          0.57332756	          0.05000013	          0.05000073	          0.05952132	          0.26703660	          0.05000370	          0.05000325	          0.07885308	          0.27748161	          0.37622094	          0.34981930	          0.25757166	          0.22397147	          0.29997587	          0.05000005	          0.05067486	          0.12368105	          0.05000029	          0.05000007	          0.05000027	          0.05000001	          0.07085550	          0.05000036	
          0.58269560	         -2.92903421	          2.37732139	         -5.99676829	          0.73135362	          0.91671341	          0.00169180	         28.52318025	          3.87869901	         -2.07105411	        -16.45099291	         -1.57796320	          6.21884739	        -11.10843038	        -10.91845130	          4.07311949	         -3.69255711	         -6.97634063	          8.31723011	         -0.25101840	          6.70437676	         -0.88260805	          7.81051967	         -1.42674982	         -0.50726087	          2.33052665	         -7.33219814	        -13.46410777	          5.46010494	          4.75524602	        -13.45121970	         16.21119988	         16.91991188	         36.34504750	         86.51662706	         86.51662706	          0.14563409	          0.05000006	          0.13203298	          0.05909098	          0.05000022	          0.05000014	          0.19893837	          0.07895138	          0.07965937	          0.05000009	          0.05951658	          0.10041144	          0.20200232	          0.16253233	          0.13129907	          0.08898663	          0.05000035	          0.05954567	          0.09267024	          0.05000099	          0.08613000	          0.07959514	          0.05909333	          0.05383297	          0.40340497	          0.15906150	          0.10106729	          0.07082687	          0.13699358	          0.13579824	          0.11743413	          0.05855030	          0.06374415	          0.05732005	          0.05403720	          0.05000071	          0.05000300	          0.40691035	          0.23998102	          0.17155903	          0.15231154	          0.53625888	          0.05000024	          0.05000000	          0.11988070	          0.09266412	          0.26468098	          0.08434787	          0.05952126	          0.21642289	          0.15049643	          0.08600105	          0.05000208	          0.05000109	          0.05000077	          0.05000017	          0.08677356	          0.05952480	          0.05952131	          0.05952131	          0.05952118	          0.05952142	          0.24943492	          0.05952090	          0.05007159	          0.05000426	          0.05000496	          0.05952001	          0.31147759	          0.57595990	          0.05001617	          0.05000124	          0.05000021	          0.22432072	          0.08632287	          0.10556092	          0.09655941	          0.23309490	          0.31603966	          0.30334443	          0.22353705	          0.18814471	          0.25199132	          0.05000001	          0.05000023	          0.14811746	          0.05000007	          0.05000001	          0.05000010	          0.05000004	          0.05952127	          0.05952159	
          0.59412101	         -2.92563580	          2.46715420	         -6.25863372	          0.74887536	          0.91588159	          0.00151947	         27.75574855	          4.11819486	         -1.79820181	        -16.46355083	         -1.89965982	          6.02183672	        -11.60278912	        -12.55078229	          3.32837585	         -4.20728404	         -7.33858393	          9.15734972	         -0.26206245	          5.22037152	         -0.83588812	         10.10468273	         -1.20294579	         -0.70927451	          2.38360198	         -8.23166737	        -13.46277879	          5.44295523	          4.42306089	        -13.45133139	         16.50700690	         16.53283700	         37.42478892	         86.51662706	         86.51662706	          0.24493317	          0.22353084	          0.26884749	          0.21793525	          0.17251941	          0.16462410	          0.16711566	          0.06632231	          0.06691686	          0.08434833	          0.05000093	          0.08434939	          0.16968953	          0.13653339	          0.11029662	          0.11320726	          0.05000052	          0.05002127	          0.09856937	          0.15771347	          0.13244263	          0.08598595	          0.05000013	          0.05000012	          0.33887526	          0.13361768	          0.16004206	          0.05949724	          0.11507979	          0.11407567	          0.09864912	          0.05000024	          0.05354833	          0.05000002	          0.05000004	          0.05000038	          0.05000036	          0.52173366	          0.33084360	          0.19294528	          0.41227660	          0.46780923	          0.20573997	          0.06449291	          0.11953012	          0.07784131	          0.25846180	          0.07085540	          0.05000018	          0.36328742	          0.12642270	          0.07224413	          0.05000094	          0.05000010	          0.05000009	          0.05000032	          0.07930691	          0.05000315	          0.05000021	          0.05000026	          0.05000049	          0.05000045	          0.24178411	          0.05000110	          0.05000027	          0.05000119	          0.05000060	          0.05000031	          0.27584800	          0.56017085	          0.05000006	          0.05000053	          0.05000100	          0.18843799	          0.07251469	          0.08867559	          0.14229253	          0.19580841	          0.26548510	          0.25482062	          0.18777953	          0.15804868	          0.21168219	          0.05000006	          0.07409149	          0.15065654	          0.05000029	          0.05063749	          0.05000024	          0.05194296	          0.05000009	          0.05000036	
          0.60554641	         -2.92059186	          2.54758050	         -6.48180513	          0.76645619	          0.91519426	          0.00131902	         26.99027504	          4.35497428	         -1.52932400	        -16.37877452	         -2.20740603	          5.84126742	        -12.12965558	        -14.29767480	          2.69850313	         -4.86081052	         -7.69242233	          9.96017295	         -0.29222985	          3.55288104	         -0.81334859	         12.58092714	         -0.98484491	         -0.91259813	          2.42779520	         -9.10341039	        -13.46036058	          5.46887672	          4.05588453	        -13.45661249	         16.76527970	         16.17947444	         38.44292627	         86.51662706	         86.51662706	          0.32933794	          0.30581899	          0.34131569	          0.18307481	          0.15683262	          0.17038794	          0.14038342	          0.06124161	          0.06618476	          0.07085579	          0.05000057	          0.07085667	          0.14254561	          0.11469344	          0.09265466	          0.14614603	          0.05000025	          0.05000144	          0.08280222	          0.21616775	          0.17426534	          0.13606296	          0.05000010	          0.05000010	          0.28466790	          0.11224392	          0.13444385	          0.05000006	          0.15345702	          0.15839374	          0.13126345	          0.05000002	          0.05000005	          0.05000001	          0.05000004	          0.05000010	          0.05000010	          0.58166257	          0.28332201	          0.16282362	          0.49410407	          0.56484305	          0.23711575	          0.07902738	          0.10040978	          0.06538961	          0.30386808	          0.05952122	          0.05000017	          0.30517517	          0.10619983	          0.06068781	          0.05000140	          0.05000020	          0.05000017	          0.05000016	          0.06662095	          0.08813869	          0.05888054	          0.05000212	          0.05000222	          0.05000076	          0.20310825	          0.07037398	          0.05000150	          0.05000237	          0.05000157	          0.05000116	          0.23172265	          0.53093980	          0.05000043	          0.05000087	          0.05000013	          0.15829494	          0.12561049	          0.11953429	          0.11953123	          0.16448636	          0.22301738	          0.21405882	          0.15774185	          0.13276686	          0.17782099	          0.06534305	          0.07123356	          0.15723036	          0.05000122	          0.11387460	          0.05000391	          0.06708163	          0.05000001	          0.05000002	
